<svg width="164" height="24" viewBox="0 0 164 24" fill="none" xmlns="http://www.w3.org/2000/svg">
<g clip-path="url(#clip0)">
<path d="M0 0L16.4339 3.65197C17.3489 3.85532 18 4.66695 18 5.60434V9L0 5V0Z" fill="#5D7CD2"/>
<path d="M6 15L24 19V24L7.56614 20.348C6.65106 20.1447 6 19.3331 6 18.3957V15Z" fill="#5D7CD2"/>
<path d="M3 7.5L20.2169 11.326C20.6745 11.4277 21 11.8335 21 12.3022V16.5L3.78307 12.674C3.32553 12.5723 3 12.1665 3 11.6978V7.5Z" fill="#5D7CD2"/>
<path d="M36.4329 13.7657H43.2361V16.4255H32V14.2724L34.7864 10.9974H33.0494V8.82617H36.632L38.6946 6.40163H32.2352V3.74187H43.1276V5.9131L40.4316 9.07948H42.0058V11.2507H38.5861L36.4329 13.7657Z" fill="white"/>
<path d="M49.6916 14.1095C50.5842 14.1095 51.3984 13.7114 52.1342 12.9153L53.9436 14.5438C52.8097 15.8706 51.314 16.5341 49.4564 16.5341C48.4069 16.5341 47.4842 16.329 46.6881 15.9189C45.8919 15.5087 45.2707 14.9298 44.8244 14.1819C44.3902 13.434 44.173 12.5655 44.173 11.5764C44.173 10.5752 44.3841 9.69467 44.8063 8.93474C45.2285 8.1748 45.8256 7.58375 46.5976 7.16156C47.3816 6.73938 48.2863 6.52829 49.3116 6.52829C50.2766 6.52829 51.121 6.72128 51.8447 7.10728C52.5805 7.48122 53.1535 8.01799 53.5636 8.71761C53.9738 9.41723 54.1909 10.2435 54.215 11.1964L47.6651 12.7706C47.846 13.1928 48.1114 13.5245 48.4612 13.7657C48.811 13.9949 49.2212 14.1095 49.6916 14.1095ZM49.4202 8.80808C48.8412 8.80808 48.3708 9.00108 48.0089 9.38708C47.6591 9.76101 47.4601 10.2978 47.4118 10.9974L51.0486 10.0927C50.928 9.67054 50.729 9.35089 50.4515 9.13377C50.1741 8.91664 49.8303 8.80808 49.4202 8.80808Z" fill="white"/>
<path d="M61.4471 15.9189C61.0973 16.1239 60.6932 16.2868 60.2348 16.4074C59.7764 16.516 59.312 16.5702 58.8416 16.5702C57.8525 16.5702 57.0564 16.2807 56.4532 15.7017C55.8501 15.1228 55.5486 14.3206 55.5486 13.2953V4.39324H58.733V7.10728H61.2842V9.24233H58.733V12.7887C58.733 13.1747 58.8175 13.4702 58.9863 13.6753C59.1552 13.8683 59.3904 13.9648 59.692 13.9648C60.0418 13.9648 60.4218 13.8562 60.8319 13.6391L61.4471 15.9189Z" fill="white"/>
<path d="M69.5597 6.51019C70.6453 6.51019 71.5077 6.84794 72.147 7.52343C72.7984 8.19893 73.1241 9.10964 73.1241 10.2556V16.4255H69.9034V11.1783C69.9034 10.6235 69.7527 10.1892 69.4511 9.8756C69.1616 9.54992 68.7575 9.38708 68.2388 9.38708C67.6478 9.39914 67.1773 9.61023 66.8275 10.0204C66.4898 10.4184 66.3209 10.9431 66.3209 11.5945V16.4255H63.1002V3.00003H66.3209V8.22909C66.6707 7.66215 67.117 7.23394 67.6598 6.94444C68.2147 6.65494 68.848 6.51019 69.5597 6.51019Z" fill="white"/>
<path d="M85.0064 6.63685V15.4122C85.0064 16.3169 84.7892 17.1191 84.355 17.8187C83.9208 18.5304 83.3116 19.0792 82.5275 19.4652C81.7556 19.8633 80.881 20.0623 79.904 20.0623C79.132 20.0623 78.3298 19.9417 77.4975 19.7004C76.6773 19.4592 75.9716 19.1516 75.3806 18.7777L76.231 16.4979C76.7738 16.7994 77.3467 17.0407 77.9499 17.2216C78.553 17.4025 79.0898 17.493 79.5602 17.493C80.2236 17.493 80.7604 17.3 81.1705 16.914C81.5927 16.528 81.8038 16.0093 81.8038 15.358V13.9467C81.1162 15.0564 80.0668 15.6113 78.6555 15.6113C77.5337 15.6113 76.6411 15.2735 75.9777 14.598C75.3263 13.9225 75.0006 13.0118 75.0006 11.8659V6.63685H78.2213V10.9431C78.2213 11.498 78.366 11.9322 78.6555 12.2459C78.9571 12.5595 79.3672 12.7163 79.8859 12.7163C80.4769 12.7163 80.9413 12.5173 81.2791 12.1192C81.6289 11.7091 81.8038 11.1542 81.8038 10.4546V6.63685H85.0064Z" fill="white"/>
<path d="M90.5791 8.26527C90.9168 7.69834 91.3511 7.26409 91.8818 6.96253C92.4246 6.66097 93.0398 6.51019 93.7274 6.51019V9.45945C93.6188 9.44739 93.4559 9.44136 93.2388 9.44136C92.4789 9.44136 91.8637 9.62229 91.3933 9.98417C90.9228 10.334 90.6514 10.8165 90.5791 11.4317V16.4255H87.3584V6.63685H90.5791V8.26527Z" fill="white"/>
<path d="M99.6202 5.26173C98.8844 5.26173 98.2934 5.48489 97.847 5.9312C97.4007 6.36544 97.1776 6.9565 97.1776 7.70437V9.73086H102.208V11.305H97.1776V16.4255H95.4406V7.66818C95.4406 6.87206 95.6034 6.17244 95.9291 5.56932C96.2669 4.9662 96.7373 4.5018 97.3404 4.17612C97.9556 3.85043 98.6673 3.68759 99.4755 3.68759C100.139 3.68759 100.802 3.75996 101.466 3.90471C102.141 4.04946 102.732 4.23643 103.239 4.46561L102.805 6.02166C102.334 5.79248 101.804 5.61154 101.212 5.47886C100.633 5.33411 100.103 5.26173 99.6202 5.26173Z" fill="white"/>
<path d="M105.02 6.85397H106.703V16.4255H105.02V6.85397ZM105.852 3.03622C106.154 3.03622 106.401 3.13875 106.594 3.34381C106.799 3.54887 106.902 3.80821 106.902 4.12184C106.902 4.43546 106.799 4.6948 106.594 4.89986C106.401 5.10492 106.154 5.20745 105.852 5.20745C105.551 5.20745 105.297 5.10492 105.092 4.89986C104.899 4.6948 104.803 4.43546 104.803 4.12184C104.803 3.80821 104.899 3.54887 105.092 3.34381C105.297 3.13875 105.551 3.03622 105.852 3.03622Z" fill="white"/>
<path d="M115.305 6.79969C116.426 6.79969 117.307 7.13141 117.946 7.79484C118.586 8.44621 118.905 9.35089 118.905 10.5089V16.4255H117.223V10.9612C117.223 10.153 116.993 9.52579 116.535 9.07948C116.089 8.62111 115.468 8.39193 114.671 8.39193C113.815 8.40399 113.115 8.68143 112.573 9.22423C112.042 9.75498 111.74 10.4486 111.668 11.305V16.4255H109.985V6.85397H111.668V8.88046C112.307 7.5174 113.519 6.82381 115.305 6.79969Z" fill="white"/>
<path d="M130.814 6.85397V16.4255H129.131V14.5619C128.77 15.1891 128.287 15.6716 127.684 16.0093C127.081 16.3471 126.375 16.516 125.567 16.516C124.662 16.516 123.86 16.3109 123.161 15.9008C122.473 15.4786 121.936 14.8996 121.55 14.1638C121.164 13.4159 120.971 12.5655 120.971 11.6126C120.971 10.6717 121.164 9.83942 121.55 9.11567C121.936 8.37987 122.479 7.8069 123.179 7.39678C123.878 6.98666 124.674 6.7816 125.567 6.7816C126.375 6.7816 127.081 6.95047 127.684 7.28822C128.287 7.6139 128.77 8.09037 129.131 8.71761V6.85397H130.814ZM125.911 15.0685C126.803 15.0685 127.539 14.791 128.118 14.2362C128.709 13.6692 129.047 12.9334 129.131 12.0287V11.305C129.047 10.4003 128.709 9.66451 128.118 9.09758C127.539 8.53064 126.803 8.24718 125.911 8.24718C125.284 8.24718 124.723 8.39796 124.228 8.69952C123.746 8.98902 123.366 9.39311 123.088 9.91179C122.811 10.4305 122.672 11.0155 122.672 11.6669C122.672 12.3182 122.811 12.9033 123.088 13.422C123.366 13.9406 123.746 14.3447 124.228 14.6342C124.723 14.9237 125.284 15.0685 125.911 15.0685Z" fill="white"/>
<path d="M139.406 6.79969C140.528 6.79969 141.408 7.13141 142.048 7.79484C142.687 8.44621 143.007 9.35089 143.007 10.5089V16.4255H141.324V10.9612C141.324 10.153 141.095 9.52579 140.636 9.07948C140.19 8.62111 139.569 8.39193 138.773 8.39193C137.916 8.40399 137.217 8.68143 136.674 9.22423C136.143 9.75498 135.842 10.4486 135.769 11.305V16.4255H134.086V6.85397H135.769V8.88046C136.408 7.5174 137.621 6.82381 139.406 6.79969Z" fill="white"/>
<path d="M152.726 9.40517C151.966 8.66936 151.055 8.30146 149.994 8.30146C149.367 8.30146 148.806 8.44018 148.311 8.71761C147.829 8.99505 147.449 9.38708 147.171 9.8937C146.894 10.4003 146.755 10.9853 146.755 11.6488C146.755 12.3122 146.888 12.8972 147.153 13.4039C147.431 13.9105 147.805 14.3085 148.275 14.598C148.758 14.8755 149.306 15.0142 149.922 15.0142C150.537 15.0142 151.092 14.9117 151.586 14.7066C152.081 14.5015 152.491 14.206 152.817 13.82L153.776 14.7971C153.341 15.3399 152.786 15.756 152.111 16.0455C151.447 16.335 150.694 16.4798 149.849 16.4798C148.92 16.4798 148.094 16.2747 147.37 15.8646C146.647 15.4545 146.08 14.8875 145.67 14.1638C145.272 13.428 145.073 12.5896 145.073 11.6488C145.073 10.7079 145.272 9.86957 145.67 9.13377C146.08 8.39796 146.647 7.82499 147.37 7.41487C148.094 7.00475 148.92 6.79969 149.849 6.79969C150.657 6.79969 151.381 6.92635 152.02 7.17966C152.672 7.4209 153.215 7.77674 153.649 8.24718L152.726 9.40517Z" fill="white"/>
<path d="M159.82 15.1047C160.978 15.1047 161.961 14.6161 162.77 13.6391L163.783 14.5438C162.745 15.8344 161.388 16.4798 159.712 16.4798C158.759 16.4798 157.908 16.2747 157.161 15.8646C156.425 15.4545 155.846 14.8875 155.424 14.1638C155.013 13.428 154.808 12.5836 154.808 11.6307C154.808 10.7019 155.007 9.86957 155.406 9.13377C155.804 8.39796 156.371 7.82499 157.106 7.41487C157.842 7.00475 158.693 6.79969 159.658 6.79969C160.876 6.79969 161.871 7.15553 162.643 7.86721C163.427 8.56683 163.879 9.51976 164 10.726L156.781 13.0782C157.022 13.7054 157.408 14.2 157.939 14.5619C158.481 14.9237 159.109 15.1047 159.82 15.1047ZM159.658 8.1929C158.693 8.1929 157.927 8.49446 157.36 9.09758C156.793 9.68864 156.509 10.5089 156.509 11.5583V11.7935L162.335 9.8937C161.877 8.75983 160.984 8.1929 159.658 8.1929Z" fill="white"/>
</g>
<defs>
<clipPath id="clip0">
<rect width="164" height="24" fill="white"/>
</clipPath>
</defs>
</svg>
